<svg width="24" height="24" fill="none" xmlns="http://www.w3.org/2000/svg"><path d="M19.67 2.29V.33H4.33v1.96h-4v3.55a2.756 2.756 0 0 0 1.13 2.58c.29.2.92.56 1.6.93V7.81c-.37-.21-.672-.387-.84-.5-.5-.332-.55-.73-.55-1.47v-2.2h2.66v7.5c.002.242.029.483.08.72a4.571 4.571 0 0 0 1.99 2.86l3.23 1.84c.552.315 1.12.602 1.7.86v2.57L6.92 22.3v1.37h10.16V22.3l-4.41-2.35v-2.46c.32-.15.83-.42 1.72-.93l3.22-1.84a4.54 4.54 0 0 0 1.99-2.81c.059-.252.09-.51.09-.77l-.02-7.5h2.66v2.2c0 .74-.06 1.13-.55 1.47-.16.11-.46.29-.83.49v1.54c.68-.37 1.3-.72 1.59-.92a2.757 2.757 0 0 0 1.13-2.58V2.29h-4zM14.4 13.17H9.73v-2.54a2.3 2.3 0 0 1 .66-1.61l2.27-2.26a.977.977 0 0 0 .26-.66.92.92 0 1 0-1.84 0H9.73a2.27 2.27 0 1 1 4.53.23c-.058.5-.272.968-.61 1.34l-2.31 2.31a.923.923 0 0 0-.26.65v1.2h3.32v1.34z" fill="#FDC746"/></svg>